<svg width="48" height="48" viewBox="0 0 48 48" fill="none" xmlns="http://www.w3.org/2000/svg">
<path fill-rule="evenodd" clip-rule="evenodd" d="M35.9997 20.001C31.5867 20.001 27.9987 16.413 27.9987 12C27.9987 7.58699 31.5867 3.99899 35.9997 3.99899H38.0007V20.001H35.9997ZM48 8.001V3.999H42C42 1.797 40.203 0 38.001 0H36C30.057 0 25.134 4.326 24.18 9.999H3.999C1.797 9.999 0 11.796 0 14.001V30C0 32.205 1.797 33.999 3.999 33.999H18V48H21.999V33.999C21.999 31.797 20.205 30 18 30H3.999V14.001H24.18C25.134 19.674 30.057 24 36 24H38.001C40.203 24 42 22.203 42 20.001H48V15.999H42V8.001H48Z" fill="#242D3D"/>
</svg>
