<svg width="48" height="48" viewBox="0 0 48 48" fill="none" xmlns="http://www.w3.org/2000/svg">
<path fill-rule="evenodd" clip-rule="evenodd" d="M39 27C38.487 27 37.977 27.195 37.584 27.585C36.807 28.368 36.807 29.634 37.584 30.414C37.977 30.807 38.487 30.999 39 30.999C39.513 30.999 40.023 30.807 40.416 30.414C41.193 29.634 41.193 28.368 40.416 27.585C40.023 27.195 39.513 27 39 27ZM33 30C32.487 30 31.977 30.195 31.584 30.585C30.807 31.368 30.807 32.634 31.584 33.414C31.977 33.807 32.487 33.999 33 33.999C33.513 33.999 34.023 33.807 34.416 33.414C35.193 32.634 35.193 31.368 34.416 30.585C34.023 30.195 33.513 30 33 30ZM27 33C26.487 33 25.977 33.195 25.584 33.585C24.807 34.368 24.807 35.634 25.584 36.414C25.977 36.807 26.487 36.999 27 36.999C27.513 36.999 28.023 36.807 28.416 36.414C29.193 35.634 29.193 34.368 28.416 33.585C28.023 33.195 27.513 33 27 33ZM21 36C20.487 36 19.977 36.195 19.584 36.585C18.807 37.368 18.807 38.634 19.584 39.414C19.977 39.807 20.487 39.999 21 39.999C21.513 39.999 22.023 39.807 22.416 39.414C23.193 38.634 23.193 37.368 22.416 36.585C22.023 36.195 21.513 36 21 36ZM15 39C14.487 39 13.977 39.195 13.584 39.585C12.807 40.368 12.807 41.634 13.584 42.414C13.977 42.807 14.487 42.999 15 42.999C15.513 42.999 16.023 42.807 16.416 42.414C17.193 41.634 17.193 40.368 16.416 39.585C16.023 39.195 15.513 39 15 39ZM9 42C8.487 42 7.977 42.195 7.584 42.585C6.807 43.368 6.807 44.634 7.584 45.414C7.977 45.807 8.487 45.999 9 45.999C9.513 45.999 10.023 45.807 10.416 45.414C11.193 44.634 11.193 43.368 10.416 42.585C10.023 42.195 9.513 42 9 42ZM36 9C36 7.341 37.341 6 39 6C40.659 6 42 7.341 42 9C42 10.659 40.659 12 39 12C37.341 12 36 10.659 36 9ZM39 24C39 24 48 15.75 48 9C48 4.029 43.971 0 39 0C34.029 0 30 4.029 30 9C30 15.75 39 24 39 24ZM9 27C7.341 27 6 25.659 6 24C6 22.341 7.341 21 9 21C10.659 21 12 22.341 12 24C12 25.659 10.659 27 9 27ZM9 15C4.029 15 0 19.029 0 24C0 30.75 9 39 9 39C9 39 18 30.75 18 24C18 19.029 13.971 15 9 15Z" fill="#242D3D"/>
</svg>
