<svg width="48" height="48" viewBox="0 0 48 48" fill="none" xmlns="http://www.w3.org/2000/svg">
<path fill-rule="evenodd" clip-rule="evenodd" d="M14.0013 21.999H33.9993V18H14.0013V21.999ZM14.0013 30H33.9993V26.001H14.0013V30ZM9.99874 44.001V8.00101H14.0007V12H33.9987V8.00101H38.0007V44.001H9.99874ZM18 8.00099H30V3.99899H18V8.00099ZM38.001 3.999H33.999C33.999 1.797 32.205 0 30 0H18C15.795 0 14.001 1.797 14.001 3.999H9.999C7.797 3.999 6 5.796 6 8.001V44.001C6 46.203 7.797 48 9.999 48H38.001C40.203 48 42 46.203 42 44.001V8.001C42 5.796 40.203 3.999 38.001 3.999Z" fill="#242D3D"/>
</svg>
