<svg width="48" height="48" viewBox="0 0 48 48" fill="none" xmlns="http://www.w3.org/2000/svg">
<g clip-path="url(#clip0_1:1735)">
<path fill-rule="evenodd" clip-rule="evenodd" d="M24 21.999H18L24 36V26.001H30L24 12V21.999ZM43.9995 6V10.794C39.7095 4.296 32.3685 0 23.9985 0C10.7445 0 -0.00146484 10.746 -0.00146484 24C-0.00146484 37.254 10.7445 48 23.9985 48C30.6285 48 36.6105 45.294 40.9425 40.944L38.1285 38.13C34.5075 41.751 29.5125 44.001 23.9985 44.001C12.9705 44.001 4.00054 35.028 4.00054 24C4.00054 12.972 12.9705 3.999 23.9985 3.999C31.3815 3.999 37.8255 8.034 41.2905 14.001H35.9985V18H46.0005C47.1045 18 47.9985 17.103 47.9985 15.999V6H43.9995Z" fill="#242D3D"/>
</g>
<defs>
<clipPath id="clip0_1:1735">
<rect width="48" height="48" fill="white"/>
</clipPath>
</defs>
</svg>
