<svg width="48" height="48" viewBox="0 0 48 48" fill="none" xmlns="http://www.w3.org/2000/svg">
<path fill-rule="evenodd" clip-rule="evenodd" d="M24 13.2744C22.92 13.2744 22.053 13.9044 22.053 15.0144V15.1044C22.053 16.1874 22.92 16.8744 24 16.8744C25.08 16.8744 25.947 16.1874 25.947 15.1044V15.0144C25.947 13.9044 25.08 13.2744 24 13.2744M22.62 34.725H25.35V19.725H22.62V34.725ZM24 44.001C12.972 44.001 3.999 35.028 3.999 24C3.999 12.972 12.972 3.999 24 3.999C35.028 3.999 44.001 12.972 44.001 24C44.001 35.028 35.028 44.001 24 44.001M24 0C10.746 0 0 10.746 0 24C0 37.254 10.746 48 24 48C37.254 48 48 37.254 48 24C48 10.746 37.254 0 24 0" fill="#242D3D"/>
</svg>
